<svg width="81" height="80" viewBox="0 0 81 80" fill="none" xmlns="http://www.w3.org/2000/svg">
<path d="M39.1174 52.6993H47.1865C47.9443 52.6993 48.5837 52.4418 49.1049 51.9268C49.6254 51.4113 49.8857 50.7721 49.8857 50.0093C49.8857 49.246 49.6254 48.6071 49.1049 48.0927C48.5837 47.5782 47.9443 47.321 47.1865 47.321H39.5724L40.0482 42.1243C40.1487 41.2249 40.5337 40.4674 41.2032 39.8518C41.8732 39.2357 42.6646 38.9277 43.5774 38.9277H53.3949C54.1526 38.9277 54.7921 38.6654 55.3132 38.141C55.8337 37.6166 56.094 36.9729 56.094 36.2102C56.094 35.4468 55.8337 34.8093 55.3132 34.2977C54.7921 33.7854 54.1526 33.5293 53.3949 33.5293H44.0399C41.5932 33.5293 39.4776 34.3385 37.6932 35.9568C35.9082 37.5757 34.8993 39.5779 34.6665 41.9635L31.939 70.836C31.8262 71.6843 32.0268 72.3857 32.5407 72.9402C33.0546 73.4946 33.7301 73.7718 34.5674 73.7718C35.2762 73.7718 35.8871 73.5329 36.3999 73.0552C36.9121 72.5779 37.2237 72.0004 37.3349 71.3227L39.1174 52.6993ZM20.0615 59.1993C16.8949 56.2704 14.4365 52.8557 12.6865 48.9552C10.9365 45.054 10.0615 40.9579 10.0615 36.6668C10.0615 28.2063 13.0199 21.0146 18.9365 15.0918C24.8532 9.16961 32.0379 6.2085 40.4907 6.2085C47.534 6.2085 53.7762 8.28683 59.2174 12.4435C64.6579 16.5996 68.2037 22.0018 69.8549 28.6502L74.4582 46.9368C74.7071 47.834 74.5487 48.6421 73.9832 49.361C73.4182 50.0793 72.6646 50.4385 71.7224 50.4385H64.2915V61.4277C64.2915 63.0027 63.7371 64.3427 62.6282 65.4477C61.5193 66.5527 60.1746 67.1052 58.594 67.1052H50.9582V70.9335C50.9582 71.7346 50.6801 72.4079 50.124 72.9535C49.5679 73.499 48.8876 73.7718 48.0832 73.7718C47.2787 73.7718 46.6074 73.499 46.069 72.9535C45.5301 72.4079 45.2607 71.7346 45.2607 70.9335V64.2668C45.2607 63.4652 45.5335 62.7915 46.079 62.246C46.6246 61.7004 47.2982 61.4277 48.0999 61.4277H58.594V47.6002C58.594 46.7985 58.8668 46.1249 59.4124 45.5793C59.9579 45.0338 60.6315 44.761 61.4332 44.761H68.034L64.364 30.0602C63.0307 24.7374 60.134 20.381 55.674 16.991C51.2135 13.601 46.1585 11.906 40.509 11.906C33.6279 11.906 27.7793 14.2877 22.9632 19.051C18.1471 23.8149 15.739 29.6199 15.739 36.466C15.739 40.0004 16.4635 43.3685 17.9124 46.5702C19.3618 49.7718 21.4162 52.6054 24.0757 55.071L25.739 56.6577V70.9335C25.739 71.7346 25.4649 72.4079 24.9165 72.9535C24.3682 73.499 23.6912 73.7718 22.8857 73.7718C22.0801 73.7718 21.4079 73.499 20.869 72.9535C20.3307 72.4079 20.0615 71.7346 20.0615 70.9335V59.1993Z" fill="#0A0302"/>
</svg>
