<svg xmlns="http://www.w3.org/2000/svg" fill="none" viewBox="71.11 41.07 703.22 1042.49">
<path d="M613.169 223.335C619.17 232.057 625.348 240.016 630.489 248.597C649.043 279.562 668.314 310.166 685.332 341.966C710.071 388.195 731.132 436.253 746.075 486.586C755.097 516.978 762.613 547.923 768.798 579.018C774.494 607.658 775.213 637.041 773.548 666.179C771.727 698.028 766.686 729.604 756.124 759.805C748.191 782.487 739.831 805.29 728.788 826.548C714.836 853.405 697.667 878.312 674.742 899.049C660.473 911.956 645.454 923.358 628.007 930.966C614.539 936.839 600.278 941.049 586.129 945.174C566.456 950.911 546.728 956.669 526.71 960.955C505.649 965.465 484.323 969.206 462.923 971.537C438.797 974.165 414.403 976.692 390.226 975.957C350.521 974.75 310.663 972.021 272.64 958.826C243.593 948.746 216.511 934.684 190.967 917.38C170.063 903.22 151.461 886.619 134.513 868.155C109.037 840.403 90.1714 809.128 80.294 772.095C72.8738 744.275 69.3725 716.296 71.9581 688.091C74.3279 662.239 78.8467 636.325 85.2977 611.176C92.2375 584.122 101.41 557.486 111.686 531.487C121.048 507.8 132.606 484.91 144.297 462.236C153.587 444.219 163.37 426.237 175.009 409.697C196.566 379.065 219.21 349.161 242.32 319.674C250.265 309.537 260.956 301.548 272.376 293.042C272.376 295.613 272.515 298.192 272.355 300.753C269.937 339.458 282.729 374.496 298.887 408.567C303.148 417.553 309.17 425.758 314.951 433.919C315.931 435.301 321.016 435.865 322.15 434.739C340.44 416.575 359.058 398.669 376.282 379.52C404.848 347.763 425.677 310.985 441.628 271.546C453.503 242.187 461.222 211.777 464.32 180.014C467.236 150.126 465.102 121 456.089 92.5446C452.642 81.662 446.639 71.601 442.006 61.0758C439.433 55.2335 437.282 49.206 434.077 41.0652C438.38 43.6142 441.434 45.3287 444.383 47.2073C446.066 48.279 447.45 49.8528 449.187 50.8013C470.463 62.4185 488.675 78.1313 505.283 95.3614C529.745 120.74 553.407 146.929 576.571 173.502C588.503 187.189 598.649 202.436 609.533 217.029C610.862 218.81 611.768 220.907 613.169 223.335Z" fill="#DE421A"/>
<path d="M668.202 769.219H190.387C175.074 769.219 162.661 781.637 162.661 796.956V823.767C162.661 839.086 175.074 851.504 190.387 851.504H668.202C683.515 851.504 695.929 839.086 695.929 823.767V796.956C695.929 781.637 683.515 769.219 668.202 769.219Z" fill="#2E3F49"/>
<path d="M162.661 869.995C162.661 859.782 170.936 851.504 181.145 851.504H677.445C687.653 851.504 695.929 859.782 695.929 869.995V891.259H162.661V869.995Z" fill="#606B73"/>
<path d="M744.912 1041.04C744.912 1064.53 725.878 1083.56 702.398 1083.56H155.267C131.787 1083.56 112.753 1064.53 112.753 1041.04H744.912Z" fill="#606B73"/>
<path d="M162.698 891.259H695.431L745.374 1041.04H112.753L162.698 891.259Z" fill="#7D8B94"/>
<path d="M176.067 915.208C179.658 904.752 189.489 897.731 200.541 897.731H661.076C672.45 897.731 682.491 905.161 685.82 916.041L711.566 1000.17C716.658 1016.81 704.217 1033.64 686.821 1033.64H171.648C153.886 1033.64 141.404 1016.15 147.174 999.338L176.067 915.208Z" fill="#6C7A83"/>
<g filter="url(#filter0_d_16_1163)">
<path d="M283.27 922.694H238.908C233.038 922.694 228.279 927.454 228.279 933.326C228.279 939.198 233.038 943.958 238.908 943.958H283.27C289.14 943.958 293.898 939.198 293.898 933.326C293.898 927.454 289.14 922.694 283.27 922.694Z" fill="white"/>
<path d="M283.27 988.336H238.908C233.038 988.336 228.279 993.096 228.279 998.968C228.279 1004.84 233.038 1009.6 238.908 1009.6H283.27C289.14 1009.6 293.898 1004.84 293.898 998.968C293.898 993.096 289.14 988.336 283.27 988.336Z" fill="white"/>
<path d="M240.756 955.053H196.394C190.524 955.053 185.766 959.813 185.766 965.685C185.766 971.557 190.524 976.317 196.394 976.317H240.756C246.626 976.317 251.384 971.557 251.384 965.685C251.384 959.813 246.626 955.053 240.756 955.053Z" fill="white"/>
<path d="M368.297 922.694H323.935C318.065 922.694 313.306 927.454 313.306 933.326C313.306 939.198 318.065 943.958 323.935 943.958H368.297C374.167 943.958 378.925 939.198 378.925 933.326C378.925 927.454 374.167 922.694 368.297 922.694Z" fill="white"/>
<path d="M368.297 988.336H323.935C318.065 988.336 313.306 993.096 313.306 998.968C313.306 1004.84 318.065 1009.6 323.935 1009.6H368.297C374.167 1009.6 378.925 1004.84 378.925 998.968C378.925 993.096 374.167 988.336 368.297 988.336Z" fill="white"/>
<path d="M325.783 955.053H281.421C275.551 955.053 270.793 959.813 270.793 965.685C270.793 971.557 275.551 976.317 281.421 976.317H325.783C331.653 976.317 336.412 971.557 336.412 965.685C336.412 959.813 331.653 955.053 325.783 955.053Z" fill="white"/>
<path d="M453.324 922.694H408.962C403.092 922.694 398.333 927.454 398.333 933.326C398.333 939.198 403.092 943.958 408.962 943.958H453.324C459.194 943.958 463.952 939.198 463.952 933.326C463.952 927.454 459.194 922.694 453.324 922.694Z" fill="white"/>
<path d="M453.324 988.336H408.962C403.092 988.336 398.333 993.096 398.333 998.968C398.333 1004.84 403.092 1009.6 408.962 1009.6H453.324C459.194 1009.6 463.952 1004.84 463.952 998.968C463.952 993.096 459.194 988.336 453.324 988.336Z" fill="white"/>
<path d="M410.81 955.053H366.448C360.578 955.053 355.82 959.813 355.82 965.685C355.82 971.557 360.578 976.317 366.448 976.317H410.81C416.68 976.317 421.439 971.557 421.439 965.685C421.439 959.813 416.68 955.053 410.81 955.053Z" fill="white"/>
<path d="M538.351 922.694H493.989C488.119 922.694 483.361 927.454 483.361 933.326C483.361 939.198 488.119 943.958 493.989 943.958H538.351C544.221 943.958 548.979 939.198 548.979 933.326C548.979 927.454 544.221 922.694 538.351 922.694Z" fill="white"/>
<path d="M538.351 988.336H493.989C488.119 988.336 483.361 993.096 483.361 998.968C483.361 1004.84 488.119 1009.6 493.989 1009.6H538.351C544.221 1009.6 548.979 1004.84 548.979 998.968C548.979 993.096 544.221 988.336 538.351 988.336Z" fill="white"/>
<path d="M495.838 955.053H451.476C445.606 955.053 440.847 959.813 440.847 965.685C440.847 971.557 445.606 976.317 451.476 976.317H495.838C501.707 976.317 506.466 971.557 506.466 965.685C506.466 959.813 501.707 955.053 495.838 955.053Z" fill="white"/>
<path d="M623.378 922.694H579.016C573.146 922.694 568.388 927.454 568.388 933.326C568.388 939.198 573.146 943.958 579.016 943.958H623.378C629.248 943.958 634.006 939.198 634.006 933.326C634.006 927.454 629.248 922.694 623.378 922.694Z" fill="white"/>
<path d="M623.378 988.336H579.016C573.146 988.336 568.388 993.096 568.388 998.968C568.388 1004.84 573.146 1009.6 579.016 1009.6H623.378C629.248 1009.6 634.006 1004.84 634.006 998.968C634.006 993.096 629.248 988.336 623.378 988.336Z" fill="white"/>
<path d="M580.865 955.053H536.503C530.633 955.053 525.874 959.813 525.874 965.685C525.874 971.557 530.633 976.317 536.503 976.317H580.865C586.735 976.317 591.493 971.557 591.493 965.685C591.493 959.813 586.735 955.053 580.865 955.053Z" fill="white"/>
<path d="M665.892 955.053H621.53C615.66 955.053 610.901 959.813 610.901 965.685C610.901 971.557 615.66 976.317 621.53 976.317H665.892C671.762 976.317 676.52 971.557 676.52 965.685C676.52 959.813 671.762 955.053 665.892 955.053Z" fill="white"/>
</g>
<path d="M179.296 810.824H150.646" stroke="#2E3F49" stroke-width="22" stroke-linecap="round"/>
<path d="M121.996 846.881L147.873 810.824" stroke="#2E3F49" stroke-width="22" stroke-linecap="round"/>
<path d="M121.996 897.731V846.881" stroke="#2E3F49" stroke-width="22" stroke-linecap="round"/>
<path fill-rule="evenodd" clip-rule="evenodd" d="M558.822 502.414H224V854.705H628V563.576L558.822 502.414Z" fill="#F1F1F1"/>
<path d="M628.462 571.95H559.146V502.609L628.462 571.95Z" fill="#E2E3E4"/>
<path d="M559.146 571.95H628.462V641.291L559.146 571.95Z" fill="#EDEDEE"/>
<path d="M494.451 855.202H365.062V885.712H494.451V855.202Z" fill="white"/>
<path d="M294.822 672.726H559.146" stroke="#BFC5C9" stroke-width="22" stroke-linecap="round"/>
<path d="M292.974 724.5H557.298" stroke="#BFC5C9" stroke-width="22" stroke-linecap="round"/>
<defs>
<filter id="filter0_d_16_1163" x="181.766" y="922.694" width="498.755" height="94.9071" filterUnits="userSpaceOnUse" color-interpolation-filters="sRGB">
<feFlood flood-opacity="0" result="BackgroundImageFix"/>
<feColorMatrix in="SourceAlpha" type="matrix" values="0 0 0 0 0 0 0 0 0 0 0 0 0 0 0 0 0 0 127 0" result="hardAlpha"/>
<feOffset dy="4"/>
<feGaussianBlur stdDeviation="2"/>
<feComposite in2="hardAlpha" operator="out"/>
<feColorMatrix type="matrix" values="0 0 0 0 0 0 0 0 0 0 0 0 0 0 0 0 0 0 0.25 0"/>
<feBlend mode="normal" in2="BackgroundImageFix" result="effect1_dropShadow_16_1163"/>
<feBlend mode="normal" in="SourceGraphic" in2="effect1_dropShadow_16_1163" result="shape"/>
</filter>
</defs>
</svg>