<svg width="81" height="81" viewBox="0 0 81 81" fill="none" xmlns="http://www.w3.org/2000/svg">
<path d="M16.1746 70.9981C15.3729 70.9981 14.6993 70.7253 14.1538 70.1798C13.6082 69.6342 13.3354 68.9606 13.3354 68.1589V52.8839C13.3354 51.3034 13.8879 49.9587 14.9929 48.8498C16.0979 47.7409 17.4379 47.1864 19.0129 47.1864H61.9879C63.5685 47.1864 64.9132 47.7409 66.0221 48.8498C67.131 49.9587 67.6854 51.3034 67.6854 52.8839V68.1589C67.6854 68.9606 67.4088 69.6342 66.8554 70.1798C66.3027 70.7253 65.6263 70.9981 64.8263 70.9981H16.1746ZM30.2446 43.8531C25.5652 43.8531 21.5738 42.2045 18.2704 38.9073C14.9671 35.6101 13.3154 31.6164 13.3154 26.9264C13.3154 22.2364 14.9671 18.2398 18.2704 14.9364C21.5738 11.6331 25.5652 9.98145 30.2446 9.98145H50.7396C55.4352 9.98145 59.4332 11.6314 62.7338 14.9314C66.0349 18.2314 67.6854 22.2284 67.6854 26.9223C67.6854 31.6167 66.0349 35.612 62.7338 38.9081C59.4332 42.2048 55.4352 43.8531 50.7396 43.8531H30.2446ZM18.8738 65.4598H62.1471V52.7248H18.8738V65.4598ZM30.2413 38.3148H50.7396C53.9085 38.3148 56.6018 37.2092 58.8196 34.9981C61.0379 32.7864 62.1471 30.1012 62.1471 26.9423C62.1471 23.7834 61.0379 21.0898 58.8196 18.8614C56.6018 16.6337 53.9085 15.5198 50.7396 15.5198H30.2413C27.0779 15.5198 24.3893 16.6267 22.1754 18.8406C19.961 21.0551 18.8538 23.7437 18.8538 26.9064C18.8538 30.0698 19.961 32.762 22.1754 34.9831C24.3893 37.2042 27.0779 38.3148 30.2413 38.3148ZM30.2563 29.6864C31.0485 29.6864 31.7071 29.4184 32.2321 28.8823C32.7577 28.3456 33.0204 27.6884 33.0204 26.9106C33.0204 26.1328 32.7529 25.4781 32.2179 24.9464C31.6829 24.4142 31.0227 24.1481 30.2371 24.1481C29.4515 24.1481 28.796 24.4176 28.2704 24.9564C27.7449 25.4953 27.4821 26.1559 27.4821 26.9381C27.4821 27.7198 27.7502 28.3731 28.2863 28.8981C28.8224 29.4237 29.479 29.6864 30.2563 29.6864ZM50.7563 29.6864C51.534 29.6864 52.1888 29.4184 52.7204 28.8823C53.2527 28.3456 53.5188 27.6884 53.5188 26.9106C53.5188 26.1328 53.2493 25.4781 52.7104 24.9464C52.1715 24.4142 51.511 24.1481 50.7288 24.1481C49.9471 24.1481 49.2938 24.4176 48.7688 24.9564C48.2432 25.4953 47.9804 26.1559 47.9804 26.9381C47.9804 27.7198 48.2485 28.3731 48.7846 28.8981C49.3213 29.4237 49.9785 29.6864 50.7563 29.6864Z" fill="#0A0302"/>
</svg>
